PathFileType	4	(X/Y/Z)	C:\Users\WrightLab\Desktop\Jo\P2_Trial23.trc
DataRate	CameraRate	NumFrames	NumMarkers	Units	OrigDataRate	OrigDataStartFrame	OrigNumFrames
100.00	100.00	      21	19	mm	100.00	305	      1217
Frame#	Time	Headset_Front			Headset_Back			Headset_Left			Headset_Right			Left_Shoulder			Right_Shoulder			Sternum			C7			Left Elbow			Right Elbow			Left Wrist			Right Wrist			Left ASIS			Right ASIS			S2			Left Knee			Right Knee			Left Ankle			Right Ankle			
		X1	Y1	Z1	X2	Y2	Z2	X3	Y3	Z3	X4	Y4	Z4	X5	Y5	Z5	X6	Y6	Z6	X7	Y7	Z7	X8	Y8	Z8	X9	Y9	Z9	X10	Y10	Z10	X11	Y11	Z11	X12	Y12	Z12	X13	Y13	Z13	X14	Y14	Z14	X15	Y15	Z15	X16	Y16	Z16	X17	Y17	Z17	X18	Y18	Z18	X19	Y19	Z19	

305	3.040				-16.99059	1421.46765	1449.51050	-217.76994	1468.21570	1552.61560										-117.92267	1608.47327	1534.40674	-63.23726	1485.05469	1771.68884	-322.11133	1076.61035	1772.38501							244.12123	986.21625	1891.06873							-64.80707	1027.81372	1999.92493	-203.86436	487.04507	1843.92078	188.15256	602.27020	1939.83557	-170.04190	133.22682	1828.44067	247.16064	174.76741	1878.04871	
306	3.050				-16.71556	1421.44482	1449.24939	-217.10828	1467.37646	1551.92407										-117.28811	1607.81177	1533.17163	-62.55764	1485.09424	1770.90466	-320.18286	1077.06445	1773.37585							244.56158	985.74219	1890.95129	76.74094	1038.60657	1758.68945				-64.22256	1028.04065	2000.35498	-203.23970	487.04053	1844.17761	188.05338	602.06177	1940.24902	-169.78188	133.85219	1829.01245	248.32713	175.37685	1877.44287	
307	3.060				-15.93647	1421.58191	1449.49158	-216.70818	1466.90442	1551.48486										-116.88873	1607.41589	1532.38672	-61.87975	1484.91992	1770.16809	-318.25772	1077.27246	1776.09485							245.02362	985.03619	1891.13062	76.93396	1038.60413	1758.43237				-63.42937	1028.08020	2000.59070	-202.72807	487.20212	1844.58704	188.48283	601.46564	1940.42297	-169.74611	133.86264	1829.03918	248.53011	174.76369	1876.83801	
308	3.070				-15.26760	1421.60950	1449.48572	-216.10834	1466.83704	1550.54541										-116.65070	1607.11731	1531.97839	-61.05252	1484.39368	1769.28528	-316.40448	1077.93750	1777.74487							245.58609	983.95233	1890.27966	77.33777	1038.76807	1757.88037				-63.18383	1028.50000	2001.46082	-201.97754	487.36871	1844.06775	188.94676	601.31549	1941.17297	-169.72067	133.87068	1829.05774	248.16312	174.46750	1876.94116	
309	3.080				-14.54479	1421.36890	1449.35535	-215.59290	1466.14331	1549.99414										-116.38920	1606.90186	1531.49475	-60.43260	1484.65173	1769.27002	-314.04971	1078.21985	1780.15918							245.85187	983.53821	1889.79773	77.79086	1038.34497	1760.10852				-62.31918	1028.31641	2000.79810	-201.57158	487.33951	1844.52832	188.95683	601.28680	1941.26099	-169.68726	133.86989	1829.09009	247.21806	173.68690	1877.54651	
310	3.090				-13.64074	1421.13232	1449.13867	-215.48590	1465.93787	1550.13977										-116.35305	1606.90662	1531.64258	-59.80402	1484.76428	1769.62378	-313.58807	1078.99805	1786.10535							246.04514	983.29602	1888.20398	78.02353	1037.51965	1762.49878				-61.46216	1028.02966	2000.40662	-201.16069	487.28586	1844.93237	189.02057	600.99451	1941.61682	-169.62128	134.10498	1828.79260	247.21806	173.68690	1877.54651	
311	3.100				-13.08384	1421.09045	1449.06775	-214.62401	1465.42859	1548.89539										-116.19237	1606.68726	1531.78101	-58.91398	1484.54480	1769.46655	-310.47546	1079.48694	1787.70642							246.66115	982.79382	1886.29724	78.17168	1037.49133	1762.30334				-61.11747	1028.39136	2000.44507	-200.77000	487.37140	1844.97998	189.06088	601.56061	1942.69739	-169.49837	134.52745	1829.79407	248.11569	173.36189	1878.52222	
312	3.110				-12.37729	1420.71960	1448.57458	-214.11174	1465.12500	1548.33069										-115.24567	1605.91296	1530.67383	-58.18217	1484.81763	1769.26550	-307.56372	1080.10583	1790.72241							247.27815	982.75146	1885.79944	78.29044	1037.66528	1762.13037				-60.77230	1028.51868	2000.80847	-200.22255	487.45557	1845.28210	189.10063	601.55548	1942.78174	-169.46939	134.53477	1829.81665	247.49542	173.47969	1877.65576	
313	3.120				-12.06616	1420.54382	1448.06714	-213.90427	1465.35266	1548.44250										-114.78111	1605.91931	1530.08923	-57.28765	1484.98694	1768.85364	-304.02539	1080.56897	1794.48755							247.86252	982.75909	1885.19360	78.34003	1037.47961	1762.07959				-60.09556	1028.32910	2000.51367	-199.76086	487.47754	1845.55505	189.01399	601.48297	1943.07288	-168.07014	135.27727	1827.92688	248.45647	173.33656	1878.39063	
314	3.130				-11.62813	1420.51733	1447.79517	-213.29811	1465.44678	1548.34399										-114.10330	1605.76514	1529.27173	-56.66611	1484.97766	1769.10620	-300.54153	1080.82690	1797.45117							248.19731	982.77118	1884.89001	78.47082	1037.55139	1761.89905				-59.75063	1028.60730	2001.14355	-199.27432	487.51334	1846.00977	189.21053	601.55872	1942.97290	-168.66760	135.34059	1828.61365	248.45647	173.33656	1878.39063	
315	3.140				-11.28153	1420.42554	1447.52295	-212.38742	1464.86169	1548.05273										-113.48698	1605.55603	1528.76575	-56.16232	1484.87402	1768.87744	-297.04993	1081.04846	1799.53894							248.55124	982.73602	1884.71057	78.70934	1037.55029	1761.58069				-58.42681	1028.42212	2000.99414	-198.80399	487.63113	1846.33301	189.84277	601.02283	1942.41418	-167.93173	135.25830	1828.02368	248.61790	173.30838	1878.34705	
316	3.150				-10.47140	1420.29419	1447.09839	-212.17490	1465.11646	1548.77759										-113.33803	1605.70593	1529.33777	-55.81734	1485.21021	1768.76306	-294.19647	1081.13318	1802.79321							249.20074	982.48749	1884.49744	78.96109	1037.60779	1761.23975				-57.66533	1028.71924	2001.59790	-197.98433	487.73395	1846.47546	190.12860	601.71552	1943.37073	-167.86578	135.25932	1828.06262	248.61790	173.30838	1878.34705	
317	3.160				-9.72433	1419.64587	1447.16760	-211.23706	1465.10583	1547.85767										-112.09244	1604.92981	1528.87073	-54.95504	1484.56116	1768.00879	-290.91406	1081.01074	1803.80688							249.27589	982.61578	1884.13281	79.37806	1036.94006	1761.92957				-56.98087	1028.83252	2002.06274	-197.57858	487.97336	1846.33899	190.40517	601.65277	1943.25952	-167.79286	135.24429	1828.11719	248.61790	173.30838	1878.34705	
318	3.170				-9.17883	1419.08923	1447.37732	-210.63678	1464.94727	1547.97253										-111.35455	1605.28723	1529.31238	-54.20955	1484.47815	1767.50061	-287.73669	1080.83179	1805.68994				-319.59760	866.01593	1864.23340	249.16780	982.95673	1883.54993	79.79481	1037.05383	1761.36365				-56.25597	1028.83008	2001.89844	-197.26080	488.12567	1846.60413	191.11263	601.67432	1943.87622	-167.73009	135.23055	1828.16467	248.61790	173.30838	1878.34705	
319	3.180				-8.87107	1419.05347	1447.34009	-210.18015	1465.03845	1548.48291										-110.47083	1605.36560	1529.27795	-53.61802	1484.52673	1767.65894	-284.94800	1080.85400	1805.73657				-316.05713	865.36047	1863.66956	249.51167	982.78918	1883.75916	80.26055	1037.23706	1760.72644				-55.99348	1029.11121	2001.74060	-196.84727	488.33572	1846.55566	191.50232	601.59509	1943.69092	-167.69386	135.24478	1828.17639	248.50552	173.11327	1878.62622	
320	3.190				-8.68763	1418.89331	1447.16223	-209.42180	1465.20923	1548.06299										-109.72991	1605.28870	1529.24963	-52.90600	1485.02710	1767.92456	-282.37054	1080.64941	1806.41919				-312.47696	865.40936	1865.42102	249.71664	982.80756	1883.41138	80.49352	1037.27686	1760.41199				-54.95105	1028.60120	2001.18726	-196.38930	488.57861	1846.64551	191.70264	601.47266	1943.70764	-167.64134	135.27948	1828.18347	248.50552	173.11327	1878.62622	
321	3.200				-8.50257	1418.61743	1446.90430	-209.32881	1465.32520	1548.37964										-109.56462	1605.49414	1529.87512	-52.36330	1485.00171	1768.72864	-279.94189	1080.24292	1805.40381				-308.50729	864.18097	1865.75378	250.01810	982.94208	1882.94385	81.04400	1037.52722	1759.65613				-54.01382	1028.64648	2001.46716	-195.99474	488.81409	1846.82886	192.54031	601.70184	1943.98254	-167.16780	135.80133	1828.20764	248.50552	173.11327	1878.62622	
322	3.210				-8.18865	1418.28748	1447.11206	-209.20206	1465.47571	1548.81384										-108.55779	1605.09814	1528.75952	-51.62250	1485.36792	1769.22302	-278.14987	1079.39893	1806.12244				-305.43713	862.52014	1863.96960	250.40016	983.07330	1882.21033	81.60268	1037.66467	1758.89856				-53.13307	1028.99365	2002.52332	-195.56535	489.27390	1846.19336	192.88509	601.83685	1943.61890	-167.10016	135.85497	1828.21045	249.30449	172.64980	1878.43372	
323	3.220				-8.02669	1417.99426	1447.18005	-208.95505	1465.64709	1548.82263										-107.96709	1604.60278	1528.38843	-50.35055	1484.80322	1768.41833	-277.00714	1078.91858	1804.65405				-302.13861	861.82953	1865.87146	250.67053	983.28754	1881.56067	82.17019	1037.23877	1759.36658				-52.22892	1029.46643	2002.88391	-195.09703	489.38943	1845.96631	193.47270	601.27814	1943.40735	-166.13249	136.07719	1827.65771	249.38388	172.36311	1878.72852	
324	3.230				-7.62805	1417.67114	1447.10889	-208.29945	1465.29321	1548.21155										-107.26103	1604.44556	1527.68457	-49.51748	1484.71130	1767.64978	-276.02957	1077.91772	1803.84509				-299.54883	860.19189	1864.45569	251.03996	983.27173	1881.01587	82.77698	1037.57825	1758.52783				-51.37485	1029.65381	2003.03833	-194.66704	489.50037	1846.04333	194.12450	601.25928	1943.05103	-166.04630	136.06589	1827.71765	249.58124	172.35207	1878.64832	
325	3.240				-7.29559	1417.28455	1446.66467	-207.80817	1465.17920	1548.37708										-106.91736	1604.34082	1527.65283	-49.38381	1484.91260	1768.15198	-275.61563	1076.92749	1802.28992				-297.47913	858.81427	1866.85181	251.39577	983.29224	1880.69666	83.07133	1037.54187	1758.13757				-50.42565	1029.02930	2002.13245	-194.19780	489.47617	1846.32080	194.54761	601.33008	1942.80884	-166.00620	136.06425	1827.74292	249.58124	172.35207	1878.64832	
